#N canvas 887 88 942 910 10;
#X obj 162 -283 pack 0 0 0;
#X obj 194 19 dac~;
#X floatatom 504 -498 5 0 0 0 - - -;
#X obj 539 -450 s pitch_bend;
#X obj 128 -174 r pitch_bend;
#X obj 281 -170 r pitch_bend;
#X obj 425 -172 r pitch_bend;
#X obj 563 -167 r pitch_bend;
#X obj 207 -31 expr~ $v1 + $v2 + $v3 + $v4;
#X obj 371 -270 s asdr;
#X obj 149 -152 r asdr;
#X obj 303 -147 r asdr;
#X obj 446 -147 r asdr;
#X obj 584 -145 r asdr;
#X obj 538 -77 simple_voice;
#X obj 100 -572 bng 15 250 50 0 empty empty empty 17 7 0 10 -262144
-1 -1;
#X obj 607 -109 r stop_all;
#X obj 469 -122 r stop_all;
#X obj 325 -128 r stop_all;
#X obj 172 -129 r stop_all;
#X obj 103 -82 simple_voice;
#X obj 256 -80 simple_voice;
#X obj 400 -82 simple_voice;
#X obj 146 -207 s v1;
#X obj 182 -206 s v2;
#X obj 218 -206 s v3;
#X obj 257 -206 s v4;
#X obj 104 -108 r v1;
#X obj 256 -106 r v2;
#X obj 399 -107 r v3;
#X obj 537 -101 r v4;
#X obj -144 -581 unpack f f;
#X floatatom -188 -557 5 0 0 0 - - -;
#X obj -190 -534 s midi_note;
#X obj -111 -535 s midi_velo;
#X obj 81 -536 s stop_all;
#X obj -25 -657 route 0 1 2;
#X obj 59 -616 s slap;
#X obj -24 -685 netreceive 3001;
#X obj 127 -381 r midi_note;
#X obj 205 -381 r midi_velo;
#X obj 367 -327 bng 15 250 50 0 empty empty empty 17 7 0 10 -262144
-1 -1;
#X obj 165 -243 route 1 2 3 4;
#X obj 170 -345 pack f f;
#X obj 500 -633 line;
#X obj 435 -721 bng 15 250 50 0 empty empty empty 17 7 0 10 -262144
-1 -1;
#X floatatom 496 -587 5 0 0 0 - - -;
#X obj 488 -707 t b b b;
#X msg 467 -664 0;
#X text 448 -767 add little stretch to the slaps;
#X obj 433 -747 r slap;
#X msg 552 -666 100;
#X msg 510 -667 150;
#X obj 165 -315 poly 4 0;
#X obj 311 -530 noise~;
#X obj 373 -529 vline~;
#X obj 343 -499 *~;
#X msg 374 -560 1 0 0 \, 0 200 0;
#X obj 350 -461 s~ out;
#X obj 128 -15 r~ out;
#X obj 371 -300 l 0 1 50 50;
#X obj 505 -535 / 100 * 24;
#X connect 0 0 42 0;
#X connect 2 0 3 0;
#X connect 4 0 20 1;
#X connect 5 0 21 1;
#X connect 6 0 22 1;
#X connect 7 0 14 1;
#X connect 8 0 1 0;
#X connect 8 0 1 1;
#X connect 10 0 20 2;
#X connect 11 0 21 2;
#X connect 12 0 22 2;
#X connect 13 0 14 2;
#X connect 14 0 8 3;
#X connect 15 0 35 0;
#X connect 16 0 14 3;
#X connect 17 0 22 3;
#X connect 18 0 21 3;
#X connect 19 0 20 3;
#X connect 20 0 8 0;
#X connect 21 0 8 1;
#X connect 22 0 8 2;
#X connect 27 0 20 0;
#X connect 28 0 21 0;
#X connect 29 0 22 0;
#X connect 30 0 14 0;
#X connect 31 0 32 0;
#X connect 31 1 34 0;
#X connect 32 0 33 0;
#X connect 36 0 31 0;
#X connect 36 1 35 0;
#X connect 36 2 37 0;
#X connect 38 0 36 0;
#X connect 39 0 43 0;
#X connect 40 0 43 1;
#X connect 41 0 60 0;
#X connect 42 0 23 0;
#X connect 42 1 24 0;
#X connect 42 2 25 0;
#X connect 42 3 26 0;
#X connect 43 0 53 0;
#X connect 44 0 46 0;
#X connect 45 0 47 0;
#X connect 45 0 57 0;
#X connect 46 0 61 0;
#X connect 47 0 48 0;
#X connect 47 1 52 0;
#X connect 47 2 51 0;
#X connect 48 0 44 0;
#X connect 50 0 45 0;
#X connect 51 0 44 0;
#X connect 51 0 46 0;
#X connect 52 0 44 1;
#X connect 53 0 0 0;
#X connect 53 1 0 1;
#X connect 53 2 0 2;
#X connect 54 0 56 0;
#X connect 55 0 56 1;
#X connect 56 0 58 0;
#X connect 57 0 55 0;
#X connect 59 0 1 0;
#X connect 59 0 1 1;
#X connect 60 0 9 0;
#X connect 61 0 2 0;
