#N canvas 0 22 450 300 10;
#X msg 71 149 60;
#X obj 109 93 random 5;
#X msg 101 151 63;
#X msg 134 147 65;
#X msg 165 147 67;
#X msg 201 148 70;
#X obj 93 119 route 0 1 2 3 4;
#X floatatom 121 186 5 0 0 0 - - -;
#X obj 111 58 inlet;
#X obj 119 223 outlet;
#X connect 0 0 7 0;
#X connect 1 0 6 0;
#X connect 2 0 7 0;
#X connect 3 0 7 0;
#X connect 4 0 7 0;
#X connect 5 0 7 0;
#X connect 6 0 0 0;
#X connect 6 1 2 0;
#X connect 6 2 3 0;
#X connect 6 3 4 0;
#X connect 6 4 5 0;
#X connect 7 0 9 0;
#X connect 8 0 1 0;
