#N canvas 473 407 974 604 10;
#X obj 196 82 unpack 0 0;
#X obj 391 152 select 0;
#X obj 287 553 outlet~;
#X obj 230 232 mtof;
#X obj 500 238 bng 15 250 50 0 empty empty empty 17 7 0 10 -262144
-1 -1;
#X obj 351 243 bng 15 250 50 0 empty empty empty 17 7 0 10 -262144
-1 -1;
#X text 342 220 attack;
#X text 507 222 release;
#X obj 376 482 vline~;
#X floatatom 162 111 5 0 0 0 - - -;
#X obj 203 48 inlet note;
#X obj 333 64 inlet pitchbend 0;
#X obj 224 184 +;
#X floatatom 173 239 5 0 0 0 - - -;
#X msg 318 271 0;
#X obj 289 525 *~;
#X obj 237 148 bng 15 250 50 0 empty empty empty 17 7 0 10 -262144
-1 -1;
#X obj 279 304 phasor~;
#X text 437 330 \$1 = attack;
#X text 436 344 \$2 = sustain;
#X text 436 357 \$3 = decay;
#X msg 383 378 1 \$1 0 \, \$2 \$3 \$1;
#X obj 581 147 pack f f f;
#X text 777 435 \$1 = attack;
#X text 776 449 \$2 = sustain;
#X text 776 462 \$3 = decay;
#X msg 766 486 1 \$1 0 \, \$2 \$3 \$1;
#X obj 383 354 l;
#X obj 580 176 s ads;
#X obj 398 333 r ads;
#X msg 572 351 0 \$1;
#X obj 572 319 f;
#X obj 588 79 inlet asdr;
#X obj 740 75 inlet stop;
#X msg 638 391 0;
#X obj 583 120 unpack f f f f;
#X connect 0 0 9 0;
#X connect 0 1 1 0;
#X connect 1 0 4 0;
#X connect 1 1 5 0;
#X connect 3 0 17 0;
#X connect 4 0 31 0;
#X connect 5 0 14 0;
#X connect 5 0 27 0;
#X connect 8 0 15 1;
#X connect 9 0 12 0;
#X connect 10 0 0 0;
#X connect 11 0 12 1;
#X connect 11 0 16 0;
#X connect 12 0 3 0;
#X connect 12 0 13 0;
#X connect 14 0 17 1;
#X connect 15 0 2 0;
#X connect 16 0 12 0;
#X connect 17 0 15 0;
#X connect 21 0 8 0;
#X connect 22 0 28 0;
#X connect 27 0 21 0;
#X connect 29 0 27 1;
#X connect 30 0 8 0;
#X connect 31 0 30 0;
#X connect 32 0 35 0;
#X connect 33 0 34 0;
#X connect 34 0 8 0;
#X connect 35 0 22 0;
#X connect 35 1 22 1;
#X connect 35 2 22 2;
#X connect 35 3 31 1;
